<!-- Generator: Adobe Illustrator 24.1.0, SVG Export Plug-In  -->
<svg version="1.1" xmlns="http://www.w3.org/2000/svg" xmlns:xlink="http://www.w3.org/1999/xlink" x="0px" y="0px" width="512px"
	 height="87.229px" viewBox="0 0 512 87.229" style="enable-background:new 0 0 512 87.229;" xml:space="preserve">
<style type="text/css">
	.st0{fill:#FFFFFF;}
	.st1{fill:#546122;}
	.st2{fill:#C2D500;}
	.st3{fill:#636569;}
	.st4{fill:#60269E;}
	.st5{fill:#6ABF4B;}
	.st6{fill:none;}
</style>
<defs>
</defs>
<g>
	<rect class="st0" width="512" height="87.229"/>
	<g>
		<g>
			<path class="st1" d="M76.42,57.738h-2.209c0.297,1.479,1.51,2.179,3.637,2.179c2.372,0,3.854-0.376,4.692-0.94h0.188v1.181
				c0,1.888-1.54,3.589-5.769,3.589c-5.122,0-7.815-3.451-7.815-7.548c0-4.498,3.044-8.163,7.626-8.163
				c3.882,0,6.901,2.182,6.901,5.955C83.671,56.954,81.432,57.738,76.42,57.738 M76.77,51.863c-1.802,0-2.558,1.158-2.695,2.587
				h1.994c2.427,0,2.858-0.38,2.858-1.025C78.927,52.67,78.253,51.863,76.77,51.863"/>
			<path class="st1" d="M97.873,63.316c-2.266,0-2.966-0.756-2.966-3.02v-5.199c0-1.994-0.676-2.886-2.4-2.886
				c-1.482,0-2.29,0.998-2.29,2.802v8.303H88.49c-2.18,0-3.395-0.864-3.395-3.02v-5.199c0-4.259,2.83-7.037,7.547-7.037
				c5.255,0,7.385,2.778,7.385,7.17v8.086H97.873z"/>
			<path class="st1" d="M122.474,50.623c-0.946-1.213-3.261-1.914-5.311-1.914c-3.017,0-5.228,1.996-5.228,5.012
				c0,3.797,2.318,5.601,5.336,5.601c1.995,0,4.206-0.754,5.122-1.724h0.133v1.917c0,2.398-2.398,4.231-6.036,4.231
				c-5.093,0-9.676-3.663-9.676-9.539c0-5.42,3.801-9.919,10.002-9.919c3.636,0,5.795,1.805,5.795,4.421v1.914H122.474z"/>
			<path class="st1" d="M131.471,48.088c4.042,0,7.681,3.072,7.681,7.651c0,4.852-2.939,7.98-8.057,7.98
				c-4.232,0-7.683-3.129-7.683-7.493C123.412,51.323,126.812,48.088,131.471,48.088 M131.147,52.129
				c-1.399,0-2.665,1.483-2.665,3.505c0,2.854,1.128,4.096,2.936,4.096c1.618,0,2.669-1.483,2.669-3.531
				C134.086,53.531,132.927,52.129,131.147,52.129"/>
			<path class="st1" d="M162.164,63.316c-2.721,0-3.34-1.161-3.34-2.994v-5.471c0-1.913-0.647-2.614-2.13-2.614
				c-1.428,0-1.913,1.056-1.913,2.533v8.546h-1.778c-2.078,0-3.18-0.674-3.18-2.994v-5.604c0-1.75-0.677-2.481-2.021-2.481
				c-1.43,0-1.997,0.73-1.997,2.558v8.521h-1.776c-2.293,0-3.343-1.105-3.343-2.994v-5.199c0-4.311,2.477-7.063,7.196-7.063
				c2.315,0,4.065,1.43,4.554,2.645c0.702-1.135,2.505-2.645,4.633-2.645c4.313,0,6.871,2.563,6.871,7.196v8.06H162.164z"/>
			<path class="st1" d="M173.213,63.747c-4.797,0-7.413-2.348-7.413-7.091v-8.162h1.994c2.237,0,3.208,0.755,3.208,3.016v5.281
				c0,2.186,1.023,2.856,2.424,2.856c1.215,0,2.188-0.699,2.188-3.047v-8.107h1.991c2.048,0,3.178,0.863,3.178,3.016v5.281
				C180.782,61.535,177.764,63.747,173.213,63.747"/>
			<path class="st1" d="M195.414,63.316c-2.264,0-2.964-0.756-2.964-3.02v-5.199c0-1.994-0.674-2.886-2.397-2.886
				c-1.483,0-2.292,0.998-2.292,2.802v8.303h-1.726c-2.18,0-3.395-0.864-3.395-3.02v-5.199c0-4.259,2.829-7.037,7.547-7.037
				c5.256,0,7.383,2.778,7.383,7.17v8.086H195.414z"/>
			<path class="st1" d="M204.684,63.529c-2.723,0-4.85-1.35-4.85-4.854V48.95h1.267c2.909,0,3.853,0.837,3.853,3.53v5.444
				c0,1.318,0.619,1.723,2.046,1.723h0.62v1.509C207.62,62.935,206.274,63.529,204.684,63.529"/>
			<path class="st1" d="M215.757,63.747c-4.365,0-7.734-3.589-7.734-7.6c0-4.987,3.072-8.087,7.006-8.087
				c1.887,0,3.29,0.836,3.827,1.995v-6.683h1.835c2.049,0,3.153,1.08,3.153,3.584v8.599
				C223.844,60.914,221.662,63.747,215.757,63.747 M215.65,52.022c-1.372,0-2.532,1.428-2.532,3.693c0,2.91,1.347,4.095,3.206,4.095
				c1.591,0,2.426-1.242,2.426-3.556C218.749,52.938,217.48,52.022,215.65,52.022"/>
			<path class="st1" d="M231.712,63.72c-2.858,0-6.335-1.35-6.335-4.717c0-3.288,2.371-4.957,7.759-4.957h0.729v-0.622
				c0-1.213-0.942-1.508-2.964-1.508c-2.777,0-3.8,0.644-4.853,1.615h-0.13v-1.804c0-1.834,1.912-3.666,6.143-3.666
				c4.094,0,6.763,2.078,6.763,6.443v2.288C238.825,62.18,237.102,63.72,231.712,63.72 M233.974,57.224h-1.024
				c-1.939,0-2.723,0.485-2.723,1.479c0,0.945,0.595,1.431,2.022,1.431c0.917,0,1.725-0.459,1.725-1.807V57.224z"/>
			<path class="st1" d="M247.906,63.747c-4.366,0-7.736-3.589-7.736-7.6c0-4.987,3.072-8.087,7.008-8.087
				c1.884,0,3.288,0.836,3.827,1.995v-6.683h1.832c2.048,0,3.15,1.08,3.15,3.584v8.599
				C255.987,60.914,253.809,63.747,247.906,63.747 M247.796,52.022c-1.373,0-2.532,1.428-2.532,3.693
				c0,2.91,1.346,4.095,3.206,4.095c1.591,0,2.424-1.242,2.424-3.556C250.895,52.938,249.63,52.022,247.796,52.022"/>
			<path class="st1" d="M202.211,47.741c1.477,0,2.678-1.199,2.678-2.675c0-1.481-1.201-2.683-2.678-2.683
				c-1.48,0-2.68,1.202-2.68,2.683C199.531,46.542,200.731,47.741,202.211,47.741"/>
			<g>
				<path class="st1" d="M48.461,35.347c1.477,0,2.679-1.2,2.679-2.676c0-1.481-1.201-2.683-2.679-2.683
					c-1.48,0-2.679,1.202-2.679,2.683C45.782,34.148,46.981,35.347,48.461,35.347"/>
				<path class="st1" d="M55.592,34.193c-1.412,0.983-6.432,4.395-7.13,4.407c-0.7-0.012-5.72-3.424-7.133-4.407
					c0,0-1.552,1.657,0.221,3.699c1.484,1.714,4.838,5.213,5.212,5.579c0.324,0.312,0.72,0.527,1.489,0.583v0.014
					c0.075,0,0.141-0.002,0.21-0.002c0.064,0,0.135,0.002,0.206,0.002l-0.002-0.014c0.775-0.056,1.169-0.271,1.491-0.583
					c0.377-0.366,3.731-3.865,5.215-5.579C57.145,35.849,55.592,34.193,55.592,34.193"/>
				<path class="st2" d="M36.11,44.32c0.456-1.406-0.314-2.918-1.717-3.374c-1.408-0.458-2.923,0.312-3.379,1.718
					c-0.458,1.408,0.315,2.92,1.723,3.377C34.141,46.497,35.653,45.727,36.11,44.32"/>
				<path class="st2" d="M37.216,37.181c0.499,1.646,2.191,7.476,1.988,8.143c-0.229,0.661-5.024,4.382-6.395,5.422
					c0,0,1.096,1.988,3.587,0.933c2.088-0.881,6.453-2.989,6.916-3.233c0.397-0.211,0.723-0.521,1.015-1.235l0.013,0.004
					c0.023-0.071,0.042-0.135,0.063-0.2c0.02-0.061,0.044-0.128,0.066-0.195l-0.014-0.002c0.186-0.754,0.104-1.196-0.094-1.598
					c-0.231-0.472-2.524-4.744-3.694-6.683C39.271,36.216,37.216,37.181,37.216,37.181"/>
				<path class="st2" d="M40.827,58.837c-1.196-0.868-2.872-0.604-3.74,0.591c-0.871,1.198-0.605,2.876,0.59,3.745
					c1.197,0.87,2.874,0.602,3.745-0.596C42.289,61.384,42.024,59.707,40.827,58.837"/>
				<path class="st2" d="M34.38,55.581c1.72,0.034,7.787,0.226,8.359,0.625c0.558,0.422,2.615,6.132,3.18,7.758
					c0,0,2.229-0.428,1.995-3.123c-0.193-2.258-0.849-7.06-0.937-7.576c-0.079-0.443-0.272-0.849-0.863-1.347l0.008-0.01
					c-0.061-0.044-0.115-0.082-0.171-0.122c-0.052-0.038-0.108-0.081-0.165-0.123l-0.006,0.012c-0.66-0.41-1.105-0.468-1.549-0.404
					c-0.52,0.074-5.29,0.934-7.498,1.447C34.097,53.328,34.38,55.581,34.38,55.581"/>
				<path class="st2" d="M56.093,58.838c-1.195,0.869-1.461,2.546-0.594,3.739c0.871,1.199,2.549,1.465,3.744,0.596
					c1.197-0.87,1.461-2.548,0.591-3.745C58.966,58.234,57.29,57.968,56.093,58.838"/>
				<path class="st2" d="M51.003,63.963c0.564-1.625,2.621-7.336,3.178-7.756c0.574-0.4,6.64-0.593,8.361-0.627
					c0,0,0.282-2.251-2.354-2.862c-2.207-0.514-6.978-1.374-7.495-1.449c-0.446-0.063-0.892-0.004-1.548,0.404l-0.009-0.012
					c-0.06,0.045-0.112,0.085-0.169,0.126c-0.052,0.037-0.11,0.077-0.168,0.119l0.01,0.01c-0.593,0.502-0.786,0.906-0.863,1.348
					c-0.09,0.517-0.746,5.319-0.94,7.578C48.773,63.536,51.003,63.963,51.003,63.963"/>
				<path class="st2" d="M60.811,44.321c0.457,1.405,1.969,2.176,3.373,1.72c1.409-0.458,2.181-1.971,1.724-3.376
					c-0.457-1.408-1.972-2.177-3.38-1.719C61.125,41.402,60.354,42.913,60.811,44.321"/>
				<path class="st2" d="M64.113,50.746c-1.371-1.039-6.167-4.76-6.395-5.419c-0.204-0.67,1.488-6.497,1.987-8.146
					c0,0-2.055-0.964-3.45,1.354c-1.171,1.94-3.463,6.212-3.695,6.681c-0.197,0.404-0.279,0.847-0.094,1.596l-0.013,0.005
					c0.024,0.071,0.046,0.133,0.067,0.2c0.02,0.061,0.039,0.129,0.061,0.197l0.013-0.006c0.293,0.72,0.619,1.028,1.015,1.237
					c0.464,0.246,4.83,2.354,6.917,3.236C63.016,52.735,64.113,50.746,64.113,50.746"/>
			</g>
			<path class="st2" d="M74.247,35.385h-2.036v1.64h2.383v0.396c0,0.425-0.338,0.656-0.637,0.656h-1.699v2.818h-0.55
				c-0.482,0-0.771-0.251-0.771-0.772v-4.815c0-0.82,0.328-1.022,1.1-1.022H75V34.7C75,35.009,74.768,35.385,74.247,35.385"/>
			<path class="st2" d="M76.697,40.895c-0.386,0-0.801-0.299-0.801-0.878v-5.732h0.598c0.338,0,0.705,0.28,0.705,0.704v5.906H76.697
				z"/>
			<path class="st2" d="M83.548,40.895c-0.512,0-1.071-0.154-1.891-1.746l-1.206-2.344c-0.183-0.368-0.328-0.618-0.444-0.773v4.864
				h-0.521c-0.386,0-0.801-0.289-0.801-0.868v-5.741h0.656c0.869,0,1.428,0.463,1.872,1.351l1.158,2.316
				c0.135,0.27,0.29,0.666,0.387,0.887v-4.554h0.588c0.338,0,0.724,0.338,0.724,0.762v5.848H83.548z"/>
			<path class="st2" d="M90.252,40.895c-0.55,0-0.839-0.318-0.887-0.637c-0.058-0.434-0.116-0.771-0.184-1.051h-2.634
				c-0.135,0.559-0.251,1.129-0.347,1.688h-0.511c-0.435,0-0.609-0.232-0.609-0.637c0-0.955,1.236-4.844,2.249-5.973h0.54
				c0.531,0,0.887,0.29,1.071,0.608c0.599,1.071,1.593,3.918,1.853,6.002H90.252z M87.859,35.501
				c-0.386,0.685-0.801,1.736-1.023,2.654h2.046C88.66,37.228,88.207,36.119,87.859,35.501"/>
			<path class="st2" d="M96.572,40.895c-0.511,0-1.071-0.154-1.891-1.746l-1.206-2.344c-0.183-0.368-0.328-0.618-0.444-0.773v4.864
				h-0.521c-0.386,0-0.801-0.289-0.801-0.868v-5.741h0.656c0.868,0,1.428,0.463,1.872,1.351l1.158,2.316
				c0.135,0.27,0.289,0.666,0.386,0.887v-4.554h0.588c0.338,0,0.724,0.338,0.724,0.762v5.848H96.572z"/>
			<path class="st2" d="M103.518,36.051c-0.415-0.54-1.245-0.714-1.814-0.714c-1.177,0-2.056,0.85-2.056,2.133
				c0,1.554,0.859,2.335,2.104,2.335c0.656,0,1.389-0.26,1.747-0.637h0.048v0.493c0,0.907-1.052,1.293-1.968,1.293
				c-1.757,0-3.262-1.313-3.262-3.291c0-2.036,1.36-3.474,3.377-3.474c1.081,0,1.872,0.444,1.872,1.351v0.511H103.518z"/>
			<path class="st2" d="M105.331,40.895c-0.386,0-0.801-0.299-0.801-0.878v-5.732h0.598c0.338,0,0.705,0.28,0.705,0.704v5.906
				H105.331z"/>
			<path class="st2" d="M111.872,40.123c-0.009,0.531-0.28,0.82-1.437,0.82h-0.705c-1.611,0-2.461-0.888-2.461-2.576v-1.225
				c0-0.627,0.048-1.331,0.126-1.862c0.106-0.792,0.473-0.994,1.013-0.994h3.455v0.444c0,0.463-0.28,0.695-0.888,0.695h-2.268
				c-0.067,0.482-0.097,1.129-0.097,1.544h2.548v0.473c0,0.434-0.27,0.607-0.801,0.607h-1.747v0.386
				c0,1.148,0.377,1.371,1.399,1.371h0.425c0.482,0,0.974-0.04,1.447-0.145L111.872,40.123z"/>
			<path class="st2" d="M117.275,40.944c-0.425,0-0.792-0.164-0.965-0.589l-0.492-1.197c-0.299-0.724-0.579-0.772-0.926-0.83
				c-0.29-0.048-0.521-0.087-0.656-0.087v2.653h-0.425c-0.588,0-0.898-0.357-0.898-0.887v-5.54c0.28-0.106,1.206-0.241,1.698-0.241
				h0.733c1.313,0,2.172,0.791,2.172,1.901c0,0.898-0.589,1.641-1.361,1.757c0.357,0.144,0.656,0.541,0.82,0.926l0.531,1.235
				c0.165,0.386,0.328,0.569,0.405,0.685C117.757,40.895,117.641,40.944,117.275,40.944 M114.823,35.366
				c-0.125,0-0.444,0.029-0.588,0.068v1.746c0.289,0.057,0.588,0.057,0.945,0.057c0.54,0,0.994-0.308,0.994-0.897
				c0-0.801-0.406-0.974-0.985-0.974H114.823z"/>
			<path class="st2" d="M123.661,40.895c-0.55,0-0.839-0.318-0.888-0.637c-0.058-0.434-0.116-0.771-0.184-1.051h-2.634
				c-0.135,0.559-0.251,1.129-0.347,1.688h-0.512c-0.434,0-0.608-0.232-0.608-0.637c0-0.955,1.235-4.844,2.249-5.973h0.54
				c0.531,0,0.888,0.29,1.071,0.608c0.599,1.071,1.593,3.918,1.853,6.002H123.661z M121.268,35.501
				c-0.386,0.685-0.801,1.736-1.023,2.654h2.046C122.068,37.228,121.616,36.119,121.268,35.501"/>
			<path class="st2" d="M129.883,38.55c-0.463,0-0.84-0.077-1.11-0.222v2.567h-0.521c-0.367,0-0.801-0.241-0.801-0.946v-5.403
				c0.367-0.135,1.245-0.309,1.718-0.309h0.743c1.283,0,2.2,0.733,2.2,2.055C132.112,37.692,131.147,38.55,129.883,38.55
				 M129.748,35.357h-0.424c-0.164,0-0.396,0.057-0.551,0.087v1.872c0.232,0.067,0.599,0.116,0.936,0.116
				c0.676,0,1.042-0.386,1.042-1.023C130.752,35.655,130.443,35.357,129.748,35.357"/>
			<path class="st2" d="M135.874,41.011c-1.67,0-3.02-1.341-3.02-3.319c0-2.055,1.158-3.522,3.165-3.522
				c1.601,0,3.02,1.226,3.02,3.319C139.04,39.497,137.891,41.011,135.874,41.011 M135.894,35.337c-0.975,0-1.679,0.801-1.679,2.152
				c0,1.592,0.579,2.374,1.785,2.374c1.023,0,1.679-0.734,1.679-2.19C137.679,36.119,137.013,35.337,135.894,35.337"/>
			<path class="st2" d="M142.695,38.55c-0.463,0-0.839-0.077-1.11-0.222v2.567h-0.521c-0.367,0-0.801-0.241-0.801-0.946v-5.403
				c0.367-0.135,1.245-0.309,1.718-0.309h0.743c1.283,0,2.2,0.733,2.2,2.055C144.924,37.692,143.959,38.55,142.695,38.55
				 M142.56,35.357h-0.425c-0.164,0-0.396,0.057-0.55,0.087v1.872c0.232,0.067,0.599,0.116,0.936,0.116
				c0.676,0,1.042-0.386,1.042-1.023C143.564,35.655,143.255,35.357,142.56,35.357"/>
			<path class="st2" d="M148.377,41.011c-1.602,0-2.635-1.071-2.635-2.982v-3.744h0.512c0.415,0,0.82,0.299,0.82,1.216v2.441
				c0,1.235,0.415,1.834,1.438,1.834c0.936,0,1.322-0.618,1.322-1.786v-3.706h0.502c0.502,0,0.829,0.367,0.829,1.178v2.452
				C151.166,39.854,150.269,41.011,148.377,41.011"/>
			<path class="st2" d="M155.45,40.953h-0.512c-1.554,0-2.412-0.869-2.412-2.451v-4.217h0.541c0.54,0,0.82,0.308,0.82,0.965v3.165
				c0,1.004,0.232,1.371,1.225,1.371h0.338c0.627,0,1.139-0.145,1.38-0.242v0.454C156.829,40.577,156.54,40.953,155.45,40.953"/>
			<path class="st2" d="M162.532,40.895c-0.55,0-0.84-0.318-0.888-0.637c-0.057-0.434-0.115-0.771-0.183-1.051h-2.634
				c-0.135,0.559-0.251,1.129-0.348,1.688h-0.511c-0.435,0-0.608-0.232-0.608-0.637c0-0.955,1.235-4.844,2.249-5.973h0.54
				c0.531,0,0.888,0.29,1.071,0.608c0.599,1.071,1.593,3.918,1.853,6.002H162.532z M160.138,35.501
				c-0.387,0.685-0.801,1.736-1.023,2.654h2.045C160.939,37.228,160.485,36.119,160.138,35.501"/>
			<path class="st2" d="M168.349,40.944c-0.424,0-0.791-0.164-0.965-0.589l-0.492-1.197c-0.299-0.724-0.579-0.772-0.927-0.83
				c-0.289-0.048-0.521-0.087-0.656-0.087v2.653h-0.424c-0.589,0-0.898-0.357-0.898-0.887v-5.54c0.28-0.106,1.206-0.241,1.698-0.241
				h0.734c1.312,0,2.171,0.791,2.171,1.901c0,0.898-0.589,1.641-1.361,1.757c0.357,0.144,0.656,0.541,0.821,0.926l0.531,1.235
				c0.164,0.386,0.328,0.569,0.405,0.685C168.831,40.895,168.716,40.944,168.349,40.944 M165.898,35.366
				c-0.125,0-0.443,0.029-0.588,0.068v1.746c0.289,0.057,0.588,0.057,0.946,0.057c0.541,0,0.994-0.308,0.994-0.897
				c0-0.801-0.406-0.974-0.985-0.974H165.898z"/>
			<path class="st1" d="M260.038,45.194c-0.162,0-0.279-0.088-0.279-0.265c0-0.152-0.015-0.585-0.042-0.835l-0.232,0.71
				c-0.035,0.103-0.105,0.284-0.17,0.39h-0.13c-0.159,0-0.283-0.121-0.389-0.463l-0.087-0.281c-0.041-0.14-0.092-0.289-0.119-0.36
				c-0.029,0.289-0.051,0.825-0.051,1.104h-0.174c-0.143,0-0.272-0.098-0.272-0.265c0-0.485,0.066-1.071,0.147-1.426h0.161
				c0.269,0,0.406,0.128,0.468,0.277l0.132,0.328c0.056,0.142,0.127,0.336,0.164,0.478c0.036-0.125,0.088-0.274,0.139-0.397
				l0.162-0.387c0.061-0.145,0.142-0.248,0.203-0.299h0.085c0.245,0,0.363,0.135,0.394,0.378c0.044,0.33,0.085,0.849,0.085,1.312
				H260.038z"/>
			<path class="st1" d="M260.697,44.67c0.145,0,0.262,0.118,0.262,0.262c0,0.144-0.117,0.262-0.262,0.262
				c-0.145,0-0.262-0.118-0.262-0.262C260.436,44.788,260.553,44.67,260.697,44.67"/>
			<path class="st1" d="M262.389,45.206c-0.156,0-0.255-0.068-0.302-0.178l-0.125-0.274c-0.067-0.145-0.112-0.172-0.222-0.187
				c-0.023-0.002-0.047-0.005-0.074-0.007v0.634h-0.179c-0.181,0-0.287-0.111-0.287-0.267v-1.374
				c0.118-0.041,0.377-0.073,0.507-0.073h0.188c0.363,0,0.62,0.198,0.62,0.504c0,0.225-0.147,0.416-0.308,0.452
				c0.081,0.037,0.123,0.098,0.186,0.233l0.13,0.274c0.049,0.1,0.093,0.176,0.118,0.205v0.013
				C262.583,45.192,262.49,45.206,262.389,45.206 M261.758,43.848c-0.019,0-0.059,0.005-0.092,0.009v0.373
				c0.056,0.007,0.115,0.007,0.186,0.007c0.132,0,0.198-0.101,0.198-0.196c0-0.122-0.061-0.193-0.196-0.193H261.758z"/>
			<path class="st1" d="M262.99,44.67c0.145,0,0.262,0.118,0.262,0.262c0,0.144-0.118,0.262-0.262,0.262
				c-0.144,0-0.262-0.118-0.262-0.262C262.728,44.788,262.846,44.67,262.99,44.67"/>
		</g>
		<g>
			<g>
				<path class="st1" d="M364.393,61.392c0,1.42-1.151,2.571-2.572,2.571h-61.918c-1.42,0-2.572-1.152-2.572-2.571V32.56
					c0-1.421,1.151-2.572,2.572-2.572h61.918c1.42,0,2.572,1.151,2.572,2.572V61.392z"/>
			</g>
			<g>
				<path class="st0" d="M359.248,41.578h-48.54c3.078,1.977,5.116,5.429,5.116,9.359c0,3.927-2.038,7.382-5.116,9.357h48.54
					c0.799,0,1.448-0.648,1.448-1.448V43.027C360.696,42.226,360.046,41.578,359.248,41.578"/>
				<path class="st0" d="M315.824,50.937c0-3.93-2.038-7.382-5.116-9.359h-8.231c-0.799,0-1.446,0.647-1.446,1.448v15.819
					c0,0.801,0.647,1.448,1.446,1.448h8.231C313.786,58.319,315.824,54.864,315.824,50.937"/>
				<path class="st1" d="M359.246,41.425h-48.538h-0.001h-8.231c-0.884,0-1.6,0.717-1.6,1.602v15.819c0,0.885,0.716,1.602,1.6,1.602
					h8.231l0,0h48.538c0.885,0,1.602-0.717,1.602-1.602V43.027C360.848,42.142,360.131,41.425,359.246,41.425 M301.183,58.846
					V43.027c0.002-0.716,0.58-1.295,1.294-1.297h8.186c0.044,0.03,0.089,0.061,0.133,0.091c0.042,0.028,0.085,0.055,0.126,0.085
					c0.05,0.035,0.101,0.07,0.149,0.106c0.042,0.029,0.084,0.058,0.127,0.09c0.047,0.035,0.094,0.069,0.141,0.105
					c0.042,0.033,0.085,0.064,0.126,0.099c0.046,0.035,0.09,0.072,0.135,0.106c0.043,0.035,0.085,0.069,0.128,0.105
					c0.043,0.036,0.085,0.073,0.129,0.111c0.042,0.036,0.085,0.072,0.126,0.109c0.041,0.036,0.082,0.073,0.122,0.11
					c0.043,0.039,0.085,0.077,0.126,0.117c0.039,0.036,0.077,0.074,0.116,0.112c0.042,0.04,0.083,0.08,0.125,0.122
					c0.037,0.038,0.075,0.077,0.11,0.114c0.041,0.042,0.084,0.084,0.124,0.128c0.034,0.039,0.071,0.077,0.104,0.116
					c0.041,0.044,0.082,0.088,0.123,0.133c0.033,0.038,0.066,0.078,0.1,0.116c0.039,0.047,0.078,0.094,0.118,0.139
					c0.033,0.04,0.063,0.08,0.096,0.119c0.039,0.049,0.076,0.095,0.115,0.143c0.031,0.04,0.061,0.082,0.092,0.122
					c0.036,0.049,0.074,0.098,0.109,0.147c0.031,0.042,0.06,0.084,0.09,0.125c0.035,0.051,0.07,0.099,0.105,0.15
					c0.029,0.043,0.056,0.086,0.085,0.129c0.033,0.051,0.069,0.1,0.099,0.152c0.028,0.045,0.056,0.09,0.084,0.133
					c0.03,0.052,0.063,0.101,0.094,0.155c0.027,0.045,0.053,0.09,0.08,0.137c0.029,0.052,0.06,0.102,0.09,0.156
					c0.025,0.047,0.05,0.094,0.077,0.143c0.029,0.05,0.056,0.102,0.083,0.155c0.026,0.048,0.049,0.098,0.074,0.149
					c0.025,0.052,0.051,0.101,0.077,0.155c0.025,0.052,0.048,0.102,0.072,0.156c0.024,0.051,0.047,0.101,0.07,0.153
					c0.024,0.055,0.047,0.111,0.071,0.166c0.021,0.051,0.042,0.097,0.061,0.148c0.024,0.057,0.046,0.117,0.068,0.176
					c0.019,0.048,0.039,0.095,0.056,0.144c0.022,0.061,0.044,0.125,0.065,0.186c0.016,0.046,0.033,0.091,0.049,0.136
					c0.022,0.068,0.043,0.138,0.065,0.206c0.012,0.042,0.026,0.081,0.038,0.123c0.022,0.074,0.043,0.148,0.062,0.221
					c0.01,0.039,0.021,0.074,0.031,0.111c0.021,0.081,0.04,0.162,0.06,0.244c0.007,0.03,0.016,0.061,0.023,0.092
					c0.019,0.089,0.04,0.181,0.057,0.271c0.006,0.024,0.01,0.045,0.015,0.069c0.021,0.099,0.036,0.199,0.054,0.3
					c0.002,0.016,0.005,0.029,0.008,0.045c0.093,0.578,0.144,1.172,0.144,1.778c0,0.603-0.051,1.199-0.144,1.777
					c-0.003,0.014-0.006,0.028-0.008,0.042c-0.016,0.101-0.034,0.2-0.054,0.302c-0.004,0.021-0.009,0.043-0.015,0.065
					c-0.018,0.092-0.038,0.184-0.057,0.275c-0.007,0.032-0.015,0.061-0.022,0.091c-0.021,0.083-0.04,0.164-0.061,0.245
					c-0.01,0.036-0.021,0.074-0.031,0.11c-0.019,0.075-0.04,0.148-0.062,0.222c-0.012,0.043-0.026,0.081-0.038,0.123
					c-0.022,0.068-0.043,0.138-0.065,0.206c-0.015,0.044-0.031,0.088-0.046,0.133c-0.023,0.064-0.044,0.126-0.067,0.191
					c-0.017,0.045-0.037,0.092-0.054,0.139c-0.022,0.06-0.046,0.12-0.07,0.178c-0.019,0.049-0.04,0.097-0.06,0.143
					c-0.024,0.057-0.047,0.114-0.071,0.17c-0.023,0.05-0.046,0.101-0.068,0.15c-0.025,0.053-0.049,0.105-0.074,0.16
					c-0.025,0.05-0.05,0.101-0.077,0.152c-0.025,0.051-0.049,0.101-0.074,0.152c-0.026,0.051-0.054,0.102-0.083,0.154
					c-0.025,0.047-0.05,0.097-0.077,0.142c-0.028,0.053-0.06,0.104-0.089,0.155c-0.027,0.046-0.054,0.094-0.081,0.139
					c-0.031,0.051-0.063,0.103-0.094,0.153c-0.028,0.044-0.054,0.09-0.084,0.133c-0.03,0.051-0.066,0.1-0.099,0.152
					c-0.029,0.043-0.057,0.086-0.085,0.128c-0.035,0.051-0.07,0.101-0.106,0.15c-0.03,0.041-0.057,0.083-0.088,0.125
					c-0.036,0.05-0.073,0.098-0.109,0.147c-0.032,0.042-0.061,0.081-0.092,0.12c-0.039,0.05-0.077,0.097-0.116,0.146
					c-0.032,0.038-0.062,0.078-0.094,0.118c-0.04,0.048-0.083,0.095-0.122,0.142c-0.032,0.038-0.064,0.075-0.096,0.114
					c-0.042,0.046-0.084,0.091-0.126,0.138c-0.034,0.036-0.067,0.074-0.101,0.111c-0.042,0.044-0.085,0.088-0.129,0.132
					c-0.034,0.036-0.069,0.073-0.104,0.108c-0.045,0.046-0.088,0.087-0.132,0.13c-0.036,0.035-0.073,0.07-0.11,0.106
					c-0.043,0.04-0.088,0.081-0.134,0.122c-0.037,0.035-0.074,0.07-0.113,0.103c-0.045,0.041-0.091,0.08-0.137,0.119
					c-0.039,0.034-0.077,0.068-0.118,0.101c-0.045,0.038-0.092,0.076-0.138,0.114c-0.04,0.033-0.081,0.066-0.124,0.1
					c-0.046,0.036-0.094,0.07-0.141,0.106c-0.041,0.033-0.083,0.065-0.128,0.097c-0.047,0.033-0.094,0.067-0.14,0.102
					c-0.045,0.03-0.089,0.061-0.133,0.093c-0.047,0.032-0.096,0.064-0.143,0.096c-0.04,0.028-0.081,0.053-0.119,0.08h-8.186
					C301.763,60.14,301.184,59.563,301.183,58.846 M360.542,58.846c-0.001,0.716-0.581,1.294-1.296,1.296H311.21
					c0.022-0.016,0.044-0.033,0.065-0.049c0.051-0.037,0.102-0.074,0.152-0.111c0.04-0.03,0.08-0.061,0.12-0.091
					c0.05-0.039,0.1-0.078,0.149-0.115c0.038-0.032,0.078-0.063,0.115-0.094c0.049-0.041,0.099-0.08,0.146-0.121
					c0.037-0.032,0.075-0.064,0.112-0.096c0.049-0.042,0.097-0.083,0.143-0.125c0.037-0.033,0.073-0.065,0.109-0.098
					c0.048-0.044,0.095-0.087,0.141-0.131c0.034-0.032,0.067-0.066,0.102-0.098c0.047-0.047,0.094-0.092,0.139-0.138
					c0.032-0.033,0.064-0.065,0.097-0.1c0.045-0.046,0.092-0.095,0.138-0.143c0.029-0.032,0.06-0.065,0.089-0.097
					c0.046-0.051,0.094-0.1,0.138-0.153c0.025-0.027,0.049-0.056,0.073-0.085c0.05-0.058,0.099-0.114,0.146-0.172
					c0.002-0.001,0.004-0.003,0.006-0.006c0.132-0.157,0.256-0.318,0.378-0.481c0.008-0.012,0.018-0.023,0.025-0.035
					c0.044-0.058,0.085-0.117,0.128-0.178c0.023-0.033,0.045-0.065,0.07-0.098c0.038-0.055,0.075-0.111,0.111-0.166
					c0.025-0.04,0.051-0.077,0.077-0.116c0.035-0.054,0.067-0.108,0.101-0.162c0.026-0.042,0.053-0.084,0.079-0.128
					c0.03-0.053,0.063-0.107,0.094-0.16c0.026-0.044,0.052-0.089,0.077-0.133c0.03-0.053,0.059-0.108,0.088-0.162
					c0.025-0.046,0.051-0.091,0.075-0.138c0.027-0.053,0.054-0.106,0.083-0.16c0.024-0.049,0.047-0.097,0.071-0.145
					c0.027-0.054,0.051-0.109,0.077-0.16c0.023-0.051,0.046-0.101,0.068-0.149c0.024-0.055,0.047-0.108,0.071-0.164
					c0.022-0.05,0.043-0.1,0.064-0.152c0.023-0.054,0.044-0.109,0.067-0.163c0.021-0.051,0.041-0.104,0.06-0.156
					c0.021-0.054,0.041-0.11,0.061-0.166c0.019-0.052,0.038-0.108,0.056-0.16c0.019-0.055,0.037-0.109,0.056-0.165
					c0.018-0.055,0.035-0.109,0.052-0.165c0.017-0.055,0.033-0.11,0.05-0.166c0.016-0.056,0.032-0.113,0.047-0.169
					c0.016-0.055,0.03-0.11,0.044-0.165c0.015-0.059,0.03-0.116,0.045-0.175c0.012-0.054,0.025-0.109,0.038-0.164
					c0.012-0.06,0.026-0.119,0.038-0.179c0.011-0.055,0.023-0.109,0.033-0.164c0.011-0.062,0.022-0.122,0.033-0.186
					c0.009-0.052,0.02-0.107,0.028-0.162c0.009-0.064,0.019-0.127,0.027-0.191c0.008-0.053,0.016-0.106,0.023-0.159
					c0.008-0.066,0.015-0.134,0.022-0.199c0.006-0.052,0.012-0.104,0.018-0.155c0.005-0.071,0.011-0.142,0.017-0.214
					c0.004-0.048,0.007-0.097,0.011-0.146c0.005-0.077,0.009-0.158,0.011-0.239c0.001-0.04,0.005-0.08,0.007-0.121
					c0.002-0.121,0.006-0.242,0.006-0.363c0-0.122-0.004-0.243-0.006-0.363c-0.002-0.042-0.006-0.082-0.007-0.121
					c-0.002-0.083-0.006-0.161-0.011-0.241c-0.004-0.048-0.008-0.095-0.011-0.143c-0.006-0.071-0.012-0.143-0.019-0.214
					c-0.004-0.051-0.011-0.101-0.016-0.153c-0.006-0.067-0.015-0.135-0.022-0.201c-0.008-0.054-0.014-0.106-0.022-0.159
					c-0.009-0.065-0.019-0.129-0.028-0.194c-0.008-0.053-0.019-0.106-0.028-0.16c-0.011-0.061-0.022-0.123-0.033-0.187
					c-0.011-0.053-0.022-0.108-0.033-0.16c-0.012-0.061-0.026-0.122-0.038-0.183c-0.012-0.053-0.026-0.108-0.038-0.161
					c-0.015-0.06-0.03-0.119-0.045-0.18c-0.013-0.053-0.028-0.107-0.043-0.16c-0.016-0.059-0.032-0.118-0.048-0.175
					c-0.017-0.054-0.032-0.107-0.049-0.16c-0.018-0.056-0.035-0.114-0.056-0.171c-0.016-0.053-0.035-0.105-0.052-0.16
					c-0.019-0.056-0.038-0.111-0.059-0.166c-0.019-0.053-0.039-0.107-0.058-0.16c-0.021-0.054-0.042-0.109-0.063-0.163
					c-0.021-0.053-0.043-0.105-0.064-0.158c-0.022-0.053-0.045-0.106-0.067-0.159c-0.022-0.051-0.044-0.105-0.067-0.156
					c-0.025-0.052-0.049-0.104-0.074-0.156c-0.022-0.053-0.046-0.103-0.071-0.154c-0.026-0.053-0.051-0.102-0.077-0.153
					c-0.027-0.051-0.052-0.103-0.078-0.153c-0.026-0.05-0.054-0.1-0.081-0.149c-0.027-0.05-0.054-0.101-0.083-0.152
					c-0.028-0.049-0.054-0.097-0.084-0.145c-0.029-0.05-0.059-0.099-0.088-0.149c-0.028-0.047-0.057-0.094-0.086-0.141
					c-0.031-0.049-0.061-0.098-0.093-0.148c-0.03-0.046-0.06-0.088-0.091-0.135c-0.03-0.048-0.064-0.098-0.098-0.147
					c-0.029-0.044-0.06-0.085-0.092-0.13c-0.034-0.049-0.068-0.097-0.103-0.146c-0.03-0.039-0.059-0.075-0.088-0.115
					c-0.077-0.103-0.159-0.208-0.241-0.309c-0.028-0.033-0.054-0.069-0.083-0.102c-0.039-0.047-0.078-0.093-0.118-0.138
					c-0.033-0.039-0.067-0.08-0.101-0.12c-0.04-0.044-0.08-0.088-0.121-0.132c-0.035-0.039-0.07-0.078-0.107-0.118
					c-0.04-0.043-0.082-0.085-0.123-0.128c-0.037-0.039-0.074-0.076-0.111-0.114c-0.042-0.041-0.085-0.084-0.128-0.126
					c-0.039-0.035-0.077-0.075-0.115-0.111c-0.043-0.04-0.087-0.08-0.131-0.12c-0.038-0.037-0.078-0.073-0.119-0.11
					c-0.043-0.039-0.088-0.076-0.132-0.115c-0.042-0.035-0.083-0.071-0.124-0.105c-0.044-0.037-0.09-0.075-0.135-0.111
					c-0.042-0.036-0.085-0.07-0.128-0.104c-0.045-0.036-0.091-0.072-0.137-0.107c-0.043-0.033-0.088-0.067-0.132-0.1
					c-0.046-0.033-0.092-0.066-0.139-0.101c-0.026-0.019-0.049-0.037-0.073-0.056h48.036c0.715,0.002,1.295,0.581,1.296,1.297
					V58.846z"/>
				<polygon class="st1" points="313.344,48.288 313.341,48.283 313.338,48.288 				"/>
				<path class="st1" d="M320.125,46.425c-2.168,0-3.362,1.471-3.362,4.14c0,3.011,1.464,4.67,4.124,4.67
					c0.729,0,1.364-0.081,1.888-0.243c0.118-0.036,0.198-0.147,0.198-0.27v-0.928c0-0.087-0.039-0.169-0.105-0.222
					c-0.067-0.053-0.156-0.074-0.241-0.054c-0.07,0.015-0.14,0.034-0.207,0.05c-0.284,0.073-0.606,0.157-1.285,0.157
					c-1.985,0-2.515-1.996-2.515-3.176v-0.178h4.251c0.156,0,0.284-0.128,0.284-0.284v-0.38
					C323.156,47.682,321.995,46.425,320.125,46.425 M318.793,48.857c0.152-0.41,0.498-0.922,1.283-0.922
					c0.783,0,1.088,0.531,1.185,0.922H318.793z M329.672,46.606h-1.125c-0.157,0-0.284,0.129-0.284,0.286v0.336
					c-0.38-0.434-0.966-0.803-1.8-0.803c-1.353,0-2.966,0.753-2.966,4.339c0,2.758,1.13,4.471,2.948,4.471
					c0.892,0,1.46-0.352,1.818-0.753v3.831c0,0.155,0.128,0.282,0.284,0.282h1.125c0.157,0,0.283-0.127,0.283-0.282V46.892
					C329.956,46.735,329.829,46.606,329.672,46.606 M326.727,53.724c-1.194,0-1.372-1.99-1.372-3.176
					c0-1.192,0.233-2.612,1.339-2.612c1.143,0,1.569,1.755,1.569,2.861C328.263,52.254,327.789,53.724,326.727,53.724
					 M336.496,46.606h-1.126c-0.156,0-0.284,0.129-0.284,0.286v3.243c0,1.421-0.735,3.406-1.934,3.406
					c-0.792,0-0.875-0.695-0.875-2.281v-4.368c0-0.157-0.127-0.286-0.283-0.286h-1.126c-0.157,0-0.284,0.129-0.284,0.286v5.626
					c0,1.625,0.925,2.717,2.303,2.717c0.953,0,1.69-0.37,2.198-1.097v0.632c0,0.156,0.128,0.283,0.284,0.283h1.126
					c0.156,0,0.283-0.127,0.283-0.283v-7.878C336.779,46.735,336.652,46.606,336.496,46.606 M339.387,43.065h-1.488
					c-0.158,0-0.284,0.128-0.284,0.284v1.49c0,0.156,0.126,0.283,0.284,0.283h1.488c0.156,0,0.284-0.127,0.284-0.283v-1.49
					C339.672,43.192,339.543,43.065,339.387,43.065 M339.206,46.606h-1.127c-0.156,0-0.283,0.129-0.283,0.286v7.878
					c0,0.156,0.127,0.283,0.283,0.283h1.127c0.155,0,0.283-0.127,0.283-0.283v-7.878C339.489,46.735,339.361,46.606,339.206,46.606
					 M343.758,46.425c-0.834,0-1.421,0.369-1.801,0.803v-0.336c0-0.157-0.128-0.286-0.285-0.286h-1.125
					c-0.157,0-0.284,0.129-0.284,0.286v11.421c0,0.155,0.127,0.282,0.284,0.282h1.125c0.157,0,0.285-0.127,0.285-0.282V54.48
					c0.357,0.402,0.925,0.754,1.817,0.754c2.187,0,2.967-2.31,2.967-4.471C346.741,47.178,345.118,46.425,343.758,46.425
					 M343.493,53.724c-1.061,0-1.536-1.47-1.536-2.927c0-1.106,0.425-2.861,1.569-2.861c1.12,0,1.355,1.421,1.355,2.612
					C344.882,51.734,344.7,53.724,343.493,53.724 M350.255,46.425c-2.264,0-3.093,1.282-3.113,2.48
					c-0.002,0.077,0.027,0.15,0.08,0.204c0.054,0.054,0.126,0.085,0.203,0.085h1.258c0.142,0,0.262-0.105,0.281-0.246
					c0.069-0.511,0.229-1.012,1.324-1.012c0.661,0,1.041,0.284,1.161,0.867c0.036,0.187,0.043,0.795,0.044,1.199
					c-0.154,0.013-0.311,0.016-0.494,0.016c-1.623,0-4.041,0.726-4.041,2.733c0,1.533,0.921,2.484,2.403,2.484
					c0.998,0,1.715-0.376,2.166-0.772v0.307c0,0.156,0.126,0.283,0.284,0.283h1.092c0.156,0,0.284-0.127,0.284-0.283v-5.529
					C353.188,48.544,353.188,46.425,350.255,46.425 M351.247,52.604l-0.028,0.068c-0.3,0.689-1.02,1.052-1.576,1.052
					c-0.411,0-0.826-0.265-0.826-0.857c0-1.14,1.659-1.389,2.299-1.389h0.375C351.475,52.081,351.394,52.26,351.247,52.604"/>
				<path class="st2" d="M322.692,54.72c-0.482,0.147-1.077,0.23-1.804,0.23c-2.433,0-3.84-1.472-3.84-4.386
					c0-2.35,0.976-3.857,3.078-3.857c1.855,0,2.747,1.275,2.747,2.996v0.38h-4.535v0.463c0,1.193,0.53,3.46,2.799,3.46
					c0.877,0,1.191-0.133,1.556-0.215V54.72z M321.583,49.142c0-0.53-0.365-1.489-1.507-1.489c-1.175,0-1.556,0.96-1.655,1.489
					H321.583z"/>
				<path class="st2" d="M328.547,53.478h-0.033c-0.182,0.562-0.696,1.472-2.069,1.472c-1.936,0-2.665-2.069-2.665-4.187
					c0-2.5,0.778-4.056,2.682-4.056c1.257,0,1.886,0.961,2.052,1.523h0.033v-1.339h1.125v11.421h-1.125V53.478z M326.727,54.008
					c1.191,0,1.82-1.457,1.82-3.212c0-1.358-0.546-3.144-1.853-3.144c-1.457,0-1.623,1.886-1.623,2.895
					C325.072,52.22,325.404,54.008,326.727,54.008"/>
				<path class="st2" d="M335.37,52.949h-0.032c-0.199,0.645-0.696,2.001-2.45,2.001c-1.358,0-2.02-1.125-2.02-2.433v-5.626h1.126
					v4.368c0,1.358,0,2.566,1.158,2.566c1.49,0,2.218-2.267,2.218-3.69v-3.243h1.126v7.878h-1.126V52.949z"/>
				<path class="st2" d="M337.899,43.349h1.488v1.49h-1.488V43.349z M338.079,46.892h1.127v7.878h-1.127V46.892z"/>
				<path class="st2" d="M340.548,46.892h1.125v1.339h0.033c0.167-0.562,0.795-1.523,2.052-1.523c1.903,0,2.698,1.556,2.698,4.056
					c0,2.118-0.744,4.187-2.682,4.187c-1.373,0-1.886-0.91-2.068-1.472h-0.033v4.835h-1.125V46.892z M343.493,54.008
					c1.342,0,1.672-1.788,1.672-3.46c0-1.009-0.165-2.895-1.639-2.895c-1.308,0-1.854,1.786-1.854,3.144
					C341.673,52.551,342.302,54.008,343.493,54.008"/>
				<path class="st2" d="M351.812,53.725h-0.035c-0.198,0.381-0.976,1.225-2.415,1.225c-1.292,0-2.118-0.794-2.118-2.201
					c0-1.836,2.382-2.45,3.756-2.45c0.282,0,0.513,0,0.777-0.05c0-0.381,0-1.241-0.05-1.505c-0.181-0.878-0.842-1.093-1.438-1.093
					c-1.273,0-1.523,0.645-1.605,1.256h-1.258c0.017-0.992,0.679-2.2,2.83-2.2c2.45,0,2.649,1.539,2.649,2.533v5.529h-1.092V53.725z
					 M351.116,51.194c-0.827,0-2.582,0.331-2.582,1.673c0,0.743,0.529,1.142,1.11,1.142c0.712,0,1.506-0.464,1.838-1.225
					c0.198-0.464,0.296-0.646,0.296-1.589H351.116z"/>
				<polygon class="st1" points="355.994,47.871 353.694,47.871 353.694,46.797 359.586,46.797 359.586,47.871 357.285,47.871 
					357.285,54.769 355.994,54.769 				"/>
				<polygon class="st1" points="353.756,50.888 353.756,50.076 354.459,50.482 355.161,50.888 354.459,51.293 353.756,51.699 				
					"/>
				<rect x="306.299" y="48.885" class="st1" width="7.038" height="7.038"/>
				<polyline class="st1" points="309.821,42.185 309.819,42.182 309.813,42.192 309.815,42.187 309.821,42.185 				"/>
				<path class="st1" d="M309.98,42.458l-0.759,0.758l-2.928,5.072h6.611l0.257-0.257c0.007-0.008,0.016-0.011,0.025-0.016
					L309.98,42.458z"/>
				<polygon class="st2" points="313.337,48.885 309.785,52.416 302.749,52.416 302.749,59.454 309.787,59.454 309.787,52.848 
					313.337,49.297 				"/>
				<path class="st2" d="M313.188,48.007c-0.009,0.005-3.544,3.538-3.546,3.538l-3.22-5.579l3.558-3.508l-0.164-0.27l-0.002,0.004
					l-3.545,3.509l-3.526,6.105h7.051l3.551-3.53L313.188,48.007z"/>
			</g>
			<g>
				<path class="st2" d="M300.876,33.76h2.827v0.858h-1.777v1.056h1.661v0.852h-1.661v1.86h-1.05V33.76z"/>
				<path class="st2" d="M305.715,33.76v4.626h-1.051V33.76H305.715z"/>
				<path class="st2" d="M306.792,38.385V33.76h1.222l0.961,1.695c0.275,0.487,0.549,1.064,0.755,1.585h0.02
					c-0.069-0.611-0.089-1.235-0.089-1.935V33.76h0.961v4.626h-1.098l-0.988-1.784c-0.275-0.494-0.577-1.091-0.803-1.633
					l-0.02,0.006c0.027,0.611,0.041,1.264,0.041,2.018v1.393H306.792z"/>
				<path class="st2" d="M312.778,37.198l-0.331,1.187h-1.083l1.414-4.626h1.372l1.435,4.626h-1.125l-0.358-1.187H312.778z
					 M313.951,36.415l-0.288-0.981c-0.082-0.274-0.165-0.617-0.234-0.892h-0.013c-0.068,0.274-0.137,0.624-0.212,0.892l-0.275,0.981
					H313.951z"/>
				<path class="st2" d="M316.373,38.385V33.76h1.221l0.961,1.695c0.274,0.487,0.55,1.064,0.754,1.585h0.021
					c-0.068-0.611-0.089-1.235-0.089-1.935V33.76h0.96v4.626h-1.097l-0.989-1.784c-0.274-0.494-0.576-1.091-0.803-1.633
					l-0.021,0.006c0.028,0.611,0.042,1.264,0.042,2.018v1.393H316.373z"/>
				<path class="st2" d="M324.677,38.255c-0.192,0.096-0.624,0.206-1.187,0.206c-1.599,0-2.422-1.002-2.422-2.32
					c0-1.578,1.125-2.457,2.525-2.457c0.542,0,0.954,0.11,1.139,0.206l-0.213,0.83c-0.212-0.09-0.508-0.171-0.878-0.171
					c-0.83,0-1.475,0.501-1.475,1.53c0,0.926,0.549,1.51,1.482,1.51c0.316,0,0.666-0.069,0.871-0.152L324.677,38.255z"/>
				<path class="st2" d="M326.586,33.76v4.626h-1.051V33.76H326.586z"/>
				<path class="st2" d="M330.416,36.429h-1.703v1.099h1.902v0.858h-2.951V33.76h2.855v0.858h-1.806v0.961h1.703V36.429z"/>
				<path class="st2" d="M331.5,33.821c0.336-0.055,0.837-0.096,1.393-0.096c0.686,0,1.167,0.103,1.496,0.364
					c0.275,0.219,0.426,0.542,0.426,0.968c0,0.59-0.419,0.995-0.817,1.139v0.021c0.322,0.13,0.501,0.44,0.617,0.865
					c0.145,0.521,0.289,1.125,0.378,1.304h-1.072c-0.075-0.137-0.185-0.508-0.322-1.077c-0.124-0.577-0.323-0.734-0.748-0.741
					h-0.315v1.818H331.5V33.821z M332.536,35.812h0.411c0.522,0,0.83-0.261,0.83-0.666c0-0.425-0.288-0.638-0.768-0.645
					c-0.253,0-0.398,0.02-0.473,0.034V35.812z"/>
				<path class="st2" d="M336.881,37.198l-0.33,1.187h-1.084l1.414-4.626h1.373l1.434,4.626h-1.126l-0.357-1.187H336.881z
					 M338.054,36.415l-0.289-0.981c-0.082-0.274-0.165-0.617-0.234-0.892h-0.013c-0.069,0.274-0.138,0.624-0.213,0.892l-0.274,0.981
					H338.054z"/>
			</g>
		</g>
		<g>
			<g>
				<g>
					<g>
						<g>
							<path class="st3" d="M426.341,47.2c-0.176,0.412-0.492,0.734-0.95,0.965c-0.458,0.231-0.975,0.347-1.552,0.347
								c-0.489,0-0.941-0.078-1.355-0.234c-0.414-0.156-0.771-0.381-1.072-0.675c-0.301-0.294-0.536-0.644-0.706-1.05
								c-0.169-0.406-0.254-0.865-0.254-1.378v-5.98h2.446v5.623c0,1.15,0.52,1.724,1.562,1.724c0.564,0,1.019-0.162,1.364-0.487
								c0.345-0.325,0.517-0.737,0.517-1.237v-5.623h2.446v9.466c0,0.65-0.11,1.231-0.329,1.743
								c-0.22,0.512-0.521,0.943-0.903,1.293c-0.383,0.35-0.834,0.619-1.355,0.806c-0.521,0.187-1.076,0.281-1.665,0.281
								c-1.367,0-2.389-0.344-3.067-1.031c-0.677-0.687-1.016-1.631-1.016-2.83h2.277c0,0.55,0.16,0.981,0.48,1.293
								c0.32,0.312,0.8,0.469,1.439,0.469c0.226,0,0.439-0.047,0.64-0.141c0.201-0.094,0.379-0.225,0.536-0.394
								c0.157-0.169,0.282-0.378,0.376-0.628c0.094-0.25,0.141-0.525,0.141-0.825V47.2z"/>
							<path class="st3" d="M433.715,48.256c-0.702,0-1.329-0.111-1.879-0.332c-0.55-0.221-1.015-0.53-1.396-0.927
								c-0.38-0.396-0.67-0.874-0.869-1.434c-0.199-0.56-0.298-1.172-0.298-1.836c0-0.676,0.102-1.294,0.307-1.854
								c0.205-0.56,0.5-1.038,0.887-1.434c0.386-0.396,0.852-0.702,1.396-0.918c0.544-0.216,1.161-0.323,1.852-0.323
								c0.679,0,1.287,0.108,1.826,0.323c0.538,0.216,0.998,0.519,1.378,0.91c0.38,0.391,0.673,0.866,0.878,1.425
								c0.205,0.56,0.307,1.184,0.307,1.872c0,0.688-0.103,1.309-0.307,1.863c-0.205,0.554-0.498,1.029-0.878,1.425
								c-0.38,0.397-0.843,0.703-1.387,0.918C434.987,48.148,434.382,48.256,433.715,48.256z M433.715,46.349
								c1.393,0,2.089-0.874,2.089-2.624c0-1.737-0.696-2.606-2.089-2.606c-1.393,0-2.089,0.869-2.089,2.606
								C431.625,45.475,432.322,46.349,433.715,46.349z"/>
							<path class="st3" d="M440.913,52.786V39.435h2.31l0.019,1.105c0.554-0.896,1.398-1.344,2.532-1.344
								c0.567,0,1.093,0.11,1.58,0.331c0.487,0.221,0.903,0.54,1.248,0.958c0.345,0.417,0.616,0.927,0.813,1.528
								c0.197,0.602,0.296,1.283,0.296,2.044c0,0.688-0.083,1.317-0.249,1.888c-0.166,0.571-0.41,1.065-0.73,1.482
								c-0.321,0.417-0.712,0.74-1.174,0.967c-0.462,0.227-0.989,0.341-1.58,0.341c-1.121,0-2.021-0.473-2.699-1.418v5.469H440.913z
								 M445.201,46.69c1.38,0,2.07-0.933,2.07-2.799c0-0.81-0.191-1.47-0.573-1.98c-0.382-0.509-0.875-0.764-1.479-0.764
								c-0.579,0-1.063,0.239-1.451,0.718c-0.388,0.479-0.582,1.105-0.582,1.878C443.187,45.708,443.858,46.69,445.201,46.69z"/>
							<path class="st3" d="M455.77,48.022v-1.238c-0.6,0.981-1.519,1.471-2.755,1.471c-0.444,0-0.849-0.078-1.216-0.233
								c-0.366-0.155-0.681-0.377-0.945-0.664c-0.264-0.287-0.471-0.628-0.621-1.023c-0.15-0.395-0.225-0.837-0.225-1.328v-5.813
								h2.341v5.454c0,1.1,0.498,1.65,1.495,1.65c0.6,0,1.054-0.188,1.36-0.565c0.306-0.377,0.459-0.858,0.459-1.444v-5.095h2.323
								v8.827H455.77z"/>
							<path class="st3" d="M460.677,44.32c0.035,0.653,0.225,1.172,0.57,1.557c0.345,0.385,0.799,0.577,1.361,0.577
								c0.375,0,0.705-0.084,0.992-0.254c0.287-0.169,0.471-0.405,0.553-0.708h2.352c-0.269,0.886-0.737,1.569-1.404,2.046
								c-0.667,0.478-1.463,0.717-2.388,0.717c-2.879,0-4.319-1.562-4.319-4.687c0-0.665,0.094-1.265,0.281-1.802
								c0.187-0.536,0.459-0.997,0.816-1.382c0.357-0.385,0.793-0.679,1.308-0.883c0.515-0.204,1.106-0.306,1.773-0.306
								c1.334,0,2.344,0.426,3.028,1.277c0.685,0.851,1.027,2.134,1.027,3.848H460.677z M464.276,42.886
								c-0.012-0.315-0.068-0.592-0.167-0.831c-0.1-0.239-0.231-0.437-0.395-0.595c-0.164-0.158-0.351-0.274-0.562-0.35
								c-0.211-0.076-0.427-0.114-0.65-0.114c-0.456,0-0.851,0.166-1.185,0.499c-0.334,0.332-0.524,0.796-0.571,1.391H464.276z"/>
							<path class="st3" d="M474.319,48.028l-0.02-1.049c-0.597,0.851-1.507,1.277-2.728,1.277c-0.624,0-1.195-0.105-1.713-0.315
								c-0.518-0.21-0.963-0.513-1.334-0.909c-0.372-0.396-0.664-0.88-0.876-1.451c-0.213-0.571-0.319-1.218-0.319-1.941
								c0-0.653,0.09-1.25,0.269-1.792c0.179-0.542,0.441-1.011,0.787-1.408c0.345-0.396,0.767-0.702,1.265-0.918
								c0.498-0.216,1.065-0.323,1.703-0.323c1.208,0,2.177,0.449,2.907,1.346v-5.878h2.549v13.363H474.319z M472.168,46.402
								c0.624,0,1.145-0.227,1.563-0.682c0.418-0.455,0.627-1.049,0.627-1.784c0-1.865-0.724-2.798-2.171-2.798
								c-1.487,0-2.23,0.886-2.23,2.658c0,0.769,0.206,1.396,0.617,1.88C470.987,46.16,471.518,46.402,472.168,46.402z"/>
							<path class="st3" d="M481.748,48.256c-0.702,0-1.328-0.111-1.878-0.332c-0.55-0.221-1.016-0.53-1.396-0.927
								c-0.38-0.396-0.67-0.874-0.869-1.434c-0.199-0.56-0.299-1.172-0.299-1.836c0-0.676,0.102-1.294,0.307-1.854
								c0.205-0.56,0.5-1.038,0.887-1.434c0.386-0.396,0.851-0.702,1.396-0.918c0.544-0.216,1.161-0.323,1.852-0.323
								c0.679,0,1.287,0.108,1.826,0.323c0.538,0.216,0.998,0.519,1.378,0.91c0.38,0.391,0.673,0.866,0.878,1.425
								c0.205,0.56,0.307,1.184,0.307,1.872c0,0.688-0.103,1.309-0.307,1.863c-0.205,0.554-0.497,1.029-0.878,1.425
								c-0.381,0.397-0.843,0.703-1.387,0.918C483.02,48.148,482.415,48.256,481.748,48.256z M481.748,46.349
								c1.393,0,2.089-0.874,2.089-2.624c0-1.737-0.696-2.606-2.089-2.606c-1.393,0-2.089,0.869-2.089,2.606
								C479.659,45.475,480.355,46.349,481.748,46.349z"/>
						</g>
						<g>
							<path class="st4" d="M448.465,51.935c-0.291,0.51-0.82,0.85-1.426,0.85c-0.919,0-1.672-0.784-1.672-1.748
								c0-0.926,0.753-1.71,1.672-1.71c0.601,0,1.125,0.34,1.417,0.831h-0.408c-0.242-0.298-0.601-0.486-1.009-0.486
								c-0.74,0-1.332,0.624-1.332,1.365c0,0.779,0.592,1.403,1.332,1.403c0.412,0,0.78-0.194,1.018-0.505H448.465z"/>
							<path class="st4" d="M452.71,49.366h1.049c0.61,0,1.022,0.42,1.022,1.049c0,0.524-0.282,0.902-0.735,1.015l0.977,1.308
								h-0.435l-0.955-1.275h-0.596v1.275h-0.327V49.366z M453.759,51.132c0.408,0,0.681-0.288,0.681-0.718
								c0-0.43-0.269-0.718-0.681-0.718h-0.722v1.436H453.759z"/>
							<path class="st4" d="M459.135,49.366h1.856v0.331h-1.529v0.945h1.439v0.331h-1.439v1.436h1.529v0.331h-1.856V49.366z
								 M459.682,48.94l0.466-0.685h0.39l-0.52,0.685H459.682z"/>
							<path class="st4" d="M465.371,49.366h0.852c1.161,0,1.627,0.482,1.627,1.686c0,1.205-0.466,1.686-1.627,1.686h-0.852V49.366z
								 M466.222,52.408c0.919,0,1.287-0.387,1.287-1.356c0-0.968-0.368-1.356-1.287-1.356h-0.524v2.711H466.222z"/>
							<path class="st4" d="M472.095,49.366h0.327v3.373h-0.327V49.366z"/>
							<path class="st4" d="M477.619,49.696h-1.085v-0.331h2.493v0.331h-1.081v3.042h-0.327V49.696z"/>
							<path class="st4" d="M486.137,51.028c0,0.964-0.749,1.748-1.668,1.748c-0.919,0-1.668-0.784-1.668-1.748
								c0-0.926,0.749-1.71,1.668-1.71C485.388,49.318,486.137,50.102,486.137,51.028z M485.796,51.028
								c0-0.742-0.587-1.365-1.327-1.365c-0.74,0-1.327,0.624-1.327,1.365c0,0.779,0.587,1.403,1.327,1.403
								C485.209,52.431,485.796,51.808,485.796,51.028z"/>
						</g>
					</g>
					<g>
						<path class="st4" d="M398.368,29.988l9.794,8.435c0.862,0.742,2.171,0.743,3.034,0.002l9.821-8.437l-9.492,12.683
							c-0.905,1.21-2.787,1.209-3.691-0.002L398.368,29.988z"/>
						<path class="st4" d="M407.428,33.383c0-1.252,1.014-2.268,2.265-2.268c1.251,0,2.265,1.015,2.265,2.268
							s-1.014,2.268-2.265,2.268C408.442,35.651,407.428,34.636,407.428,33.383z"/>
					</g>
				</g>
				<path class="st5" d="M416.003,44.784l-0.049,0.038l-2.877,2.207l-1.37,1.07c0.849-1.302,1.694-2.606,2.523-3.922
					c1.235-1.948,2.445-3.913,3.63-5.896c1.183-1.984,2.345-3.983,3.442-6.027c-1.546,1.73-3.027,3.506-4.486,5.296
					c-1.458,1.791-2.891,3.601-4.298,5.428c-1.413,1.823-2.796,3.667-4.172,5.516l-2.045,2.787l-2.019,2.805
					c-0.361,0.502-0.363,1.202,0.04,1.71c0.487,0.614,1.379,0.717,1.993,0.231l0.019-0.015l2.841-2.252l1.771-1.427
					c-0.44,0.687-0.879,1.376-1.314,2.066c-0.987,1.57-1.964,3.147-2.918,4.74c-0.957,1.591-1.895,3.196-2.797,4.826
					c1.241-1.39,2.446-2.805,3.631-4.234c1.188-1.427,2.353-2.871,3.509-4.321c1.153-1.452,2.295-2.911,3.424-4.38
					c1.131-1.468,2.245-2.947,3.357-4.428c0.342-0.456,0.356-1.101-0.008-1.575C417.392,44.454,416.574,44.346,416.003,44.784z"/>
			</g>
			<g>
				<path class="st6" d="M488.147,35.102l-0.624,1.429h-0.227l-0.627-1.429v1.429h-0.191v-1.866h0.217l0.713,1.657l0.713-1.657
					h0.217v1.866h-0.191V35.102z"/>
				<path class="st6" d="M488.613,36.398c0-0.078,0.065-0.144,0.146-0.144c0.078,0,0.144,0.065,0.144,0.144
					c0,0.081-0.065,0.146-0.144,0.146C488.678,36.544,488.613,36.479,488.613,36.398z"/>
				<path class="st6" d="M489.282,34.666h0.612c0.355,0,0.596,0.233,0.596,0.58c0,0.29-0.165,0.499-0.428,0.562l0.57,0.724h-0.253
					l-0.557-0.705h-0.348v0.705h-0.191V34.666z M489.894,35.643c0.238,0,0.397-0.159,0.397-0.397c0-0.238-0.157-0.397-0.397-0.397
					h-0.421v0.794H489.894z"/>
				<path class="st6" d="M490.723,36.398c0-0.078,0.065-0.144,0.146-0.144c0.078,0,0.144,0.065,0.144,0.144
					c0,0.081-0.065,0.146-0.144,0.146C490.788,36.544,490.723,36.479,490.723,36.398z"/>
			</g>
		</g>
	</g>
</g>
</svg>